# xmcd
#
# Track frame offsets:
#	150
#	16465
#	24000
#	35085
#	37572
#	49325
#	63445
#	66542
#	77765
#	95165
#	98154
#	111455
#	129770
#	132997
#	145425
#	156845
#	170055
#	175255
#	194237
#	196617
#
# Disc length: 2777 seconds
#
# Revision: 1
# Processed by: cddbd v1.5.2PL0 Copyright (c) Steve Scherf et al.
# Submitted via: audiograbber 1.83.01
#
DISCID=1f0ad714
DTITLE=Christoph Mauz - Himbeerbua
DYEAR=2007
DGENRE=Blues
TTITLE0=Der Mensch is a Himbeerbua
TTITLE1=Rosamunde
TTITLE2=Spring au
TTITLE3=En oidn Herrn Fuchs sei Schrebergartl - Winter
TTITLE4=I geh mit'n Hund
TTITLE5=Mei Wagerl, mei Taschn und i
TTITLE6=En oidn Herrn Fuchs sei Schrebergartl -Frühling
TTITLE7=Hannelore
TTITLE8=Das letzte Grühendl
TTITLE9=En oidn Herrn Fuchs sei Schrebergartl - Sommer
TTITLE10=In Döbling daham
TTITLE11=Weu i a Weinbeisser bin
TTITLE12=En oidn Herrn Fuchs sei Schrebergartl - Herbst
TTITLE13=Loss mei Frisua in Rua
TTITLE14=Oide sog mia, wos wüst du no
TTITLE15=Da Wiat mocht Sperrstund
TTITLE16=Ein Prosit der Gemütlichkeit
TTITLE17=Fett wia a Radierer
TTITLE18=Da oide Herr Fuchs und de Gicht
TTITLE19=Ham in Zweitn
EXTD=
EXTT0=
EXTT1=
EXTT2=
EXTT3=
EXTT4=
EXTT5=
EXTT6=
EXTT7=
EXTT8=
EXTT9=
EXTT10=
EXTT11=
EXTT12=
EXTT13=
EXTT14=
EXTT15=
EXTT16=
EXTT17=
EXTT18=
EXTT19=
PLAYORDER=
